<?xml version="1.0" encoding="UTF-8"?>
<!DOCTYPE svg PUBLIC "-//W3C//DTD SVG 1.1//EN" "http://www.w3.org/Graphics/SVG/1.1/DTD/svg11.dtd">
<!-- Creator: CorelDRAW 2018 (64 Bit Versión de evaluación) -->
<svg xmlns="http://www.w3.org/2000/svg" xml:space="preserve" width="76.2mm" height="55.0333mm" version="1.1" style="shape-rendering:geometricPrecision; text-rendering:geometricPrecision; image-rendering:optimizeQuality; fill-rule:evenodd; clip-rule:evenodd"
viewBox="0 0 2367.99 1710.21"
 xmlns:xlink="http://www.w3.org/1999/xlink">
 <defs>
  <style type="text/css">
   <![CDATA[
    .fil2 {fill:#72715E}
    .fil1 {fill:#72715E;fill-rule:nonzero}
    .fil0 {fill:#1ABC9C;fill-opacity:0.501961}
   ]]>
  </style>
 </defs>
 <g id="Capa_x0020_1">
  <metadata id="CorelCorpID_0Corel-Layer"/>
  <g id="_3049978356416">
   <path class="fil0" d="M-0 0l2367.99 0 0 1710.21 -2367.99 0 0 -1710.21zm1183.99 183.6c370.86,0 671.5,300.64 671.5,671.5 0,370.86 -300.64,671.5 -671.5,671.5 -370.86,0 -671.5,-300.64 -671.5,-671.5 0,-370.86 300.64,-671.5 671.5,-671.5z"/>
   <g>
    <polygon class="fil1" points="807.62,904.35 807.62,780.72 763.57,780.72 763.57,755.58 881.58,755.58 881.58,780.72 837.75,780.72 837.75,904.35 "/>
    <path class="fil1" d="M903.67 904.35l0 -148.77 63.27 0c15.89,0 27.46,1.35 34.66,4.02 7.24,2.67 12.99,7.41 17.32,14.23 4.33,6.86 6.51,14.65 6.51,23.44 0,11.18 -3.26,20.4 -9.8,27.67 -6.54,7.27 -16.31,11.84 -29.33,13.75 6.48,3.78 11.81,7.93 16,12.47 4.22,4.54 9.9,12.6 17.04,24.17l18.15 29.02 -35.91 0 -21.54 -32.48c-7.72,-11.53 -13.02,-18.8 -15.9,-21.82 -2.84,-2.98 -5.85,-5.06 -9.04,-6.16 -3.22,-1.11 -8.28,-1.66 -15.2,-1.66l-6.1 0 0 62.12 -30.13 0zm30.13 -85.81l22.23 0c14.41,0 23.38,-0.62 26.98,-1.84 3.57,-1.21 6.41,-3.33 8.42,-6.3 2.04,-2.98 3.05,-6.72 3.05,-11.18 0,-5.02 -1.35,-9.04 -4.02,-12.15 -2.67,-3.08 -6.44,-5.02 -11.29,-5.82 -2.46,-0.34 -9.76,-0.52 -21.92,-0.52l-23.45 0 0 37.82z"/>
    <path class="fil1" d="M1269.14 849.5l29.09 8.93c-4.47,16.38 -11.91,28.53 -22.3,36.5 -10.39,7.93 -23.55,11.91 -39.51,11.91 -19.77,0 -36.01,-6.75 -48.76,-20.26 -12.71,-13.5 -19.08,-31.96 -19.08,-55.41 0,-24.76 6.41,-44.01 19.19,-57.73 12.78,-13.71 29.61,-20.57 50.45,-20.57 18.21,0 33,5.4 44.36,16.17 6.79,6.37 11.84,15.51 15.24,27.46l-29.71 7.06c-1.77,-7.69 -5.44,-13.78 -11.01,-18.25 -5.61,-4.47 -12.4,-6.68 -20.36,-6.68 -11.04,0 -20.01,3.95 -26.87,11.88 -6.89,7.9 -10.32,20.71 -10.32,38.44 0,18.77 3.39,32.17 10.15,40.13 6.79,8 15.58,11.98 26.42,11.98 8,0 14.89,-2.53 20.64,-7.62 5.75,-5.09 9.9,-13.06 12.4,-23.96z"/>
    <path class="fil1" d="M1453.7 904.35l-32.45 0 -12.85 -33.87 -59.67 0 -12.36 33.87 -31.86 0 57.76 -148.77 31.82 0 59.59 148.77zm-55.06 -59.01l-20.67 -55.06 -20.08 55.06 40.76 0z"/>
    <path class="fil1" d="M1460.01 830.87c0,-15.17 2.28,-27.91 6.82,-38.23 3.36,-7.59 8,-14.41 13.85,-20.43 5.85,-6.03 12.26,-10.49 19.22,-13.44 9.28,-3.91 19.98,-5.89 32.1,-5.89 21.96,0 39.48,6.82 52.67,20.43 13.16,13.64 19.74,32.59 19.74,56.86 0,24.07 -6.54,42.91 -19.6,56.48 -13.06,13.61 -30.54,20.4 -52.39,20.4 -22.13,0 -39.76,-6.75 -52.81,-20.29 -13.06,-13.51 -19.6,-32.14 -19.6,-55.89zm30.96 -1c0,16.86 3.91,29.64 11.71,38.37 7.79,8.69 17.69,13.06 29.67,13.06 12.02,0 21.85,-4.33 29.57,-12.95 7.69,-8.66 11.53,-21.61 11.53,-38.89 0,-17.07 -3.74,-29.81 -11.26,-38.2 -7.48,-8.42 -17.42,-12.6 -29.85,-12.6 -12.4,0 -22.4,4.26 -29.99,12.74 -7.58,8.52 -11.39,21.33 -11.39,38.48z"/>
    <path class="fil2" d="M1053.69 783.59c1.34,-6.83 -1.63,-9.48 -6.81,-11.47 -3.52,-1.36 -3.45,-6.79 -2.64,-13.03 4.63,-17.66 19.4,-21.42 34.3,-10.15 11.88,5.2 18.22,22.57 21.7,42.7 11.13,9.1 18.93,19.86 20.8,34.65 4.2,33.21 29.24,66.64 61.45,95.19 -10.62,-4.55 -21.23,-9.1 -31.85,-13.65 8.33,18.32 13.42,36.63 45.85,54.95 -8.05,-4.43 -16.1,-8.87 -24.15,-13.3 5.48,6.07 10.97,12.13 16.45,18.2 -32.94,-21.11 -61.1,-49.7 -75.6,-76.65 -15.56,-1.05 -27.15,-10.5 -26.95,-17.85 -11.12,0.8 -17.27,6.76 -17.15,12.25 -2.6,-5.83 -2.91,-11.67 6.65,-17.5 -13.38,-4.6 -23.68,-23.28 -22.81,-37.33 0.59,-9.49 6.94,-14.36 2.45,-22.5 -3.19,-5.8 -2.22,-14.03 -1.7,-24.51z"/>
   </g>
  </g>
 </g>
</svg>
